<svg width="100" height="100" viewBox="0 0 100 100" fill="none" xmlns="http://www.w3.org/2000/svg">
<path d="M28.4465 65.0955C21.5034 53.5893 22.0076 31.2913 22.0076 31.2913C22.0076 31.2913 31.0549 27.8081 36.4952 24.8524C42.3169 21.6894 50.4951 15.6311 50.4951 15.6311V84.6336C50.4951 84.6336 34.4289 75.0095 28.4465 65.0955Z" fill="url(#paint0_linear_27_174)"/>
<path d="M72.553 65.0955C79.4961 53.5893 78.9919 31.2913 78.9919 31.2913C78.9919 31.2913 69.9446 27.8081 64.5043 24.8524C58.6826 21.6894 50.4951 15.6311 50.4951 15.6311V84.6336C50.4951 84.6336 66.5706 75.0095 72.553 65.0955Z" fill="url(#paint1_linear_27_174)"/>
<path d="M38.774 55.4937L56.1607 45.9088C56.4203 45.7657 56.6459 45.5718 56.8048 45.3216C57.5699 44.1171 59.715 40.1373 57.8448 35.8316C55.6017 30.6672 50.5986 29.6198 50.5986 29.6198C50.5986 29.6198 49.493 31.618 43.0504 34.7497C39.5206 36.4655 33.4939 38.3031 33.4939 38.3031C33.4939 38.3031 39.5859 40.5179 40.8564 43.7095C42.1268 46.9012 38.774 55.4937 38.774 55.4937Z" fill="white"/>
<path d="M60.1955 47.4463L39.4939 58.7386C38.7724 59.1322 38.4116 59.3289 38.1235 59.9848C37.8354 60.6407 37.8925 60.8705 38.0067 61.3301C38.2315 62.2347 38.7992 63.3975 40.1346 64.589C42.0291 66.2793 44.5101 67.0078 45.986 67.3085C46.5128 67.4158 46.7762 67.4695 47.1487 67.4115C47.5213 67.3535 47.8029 67.1961 48.3663 66.8813L61.4245 59.5833C61.4245 59.5833 64.7495 57.9092 65.1928 51.4469C65.6104 45.3596 65.3013 41.2117 65.3013 41.2117C65.3013 41.2117 65.3229 41.5578 64.196 43.6318C63.2091 45.448 60.9778 46.9567 60.4383 47.3037L60.4383 47.3037C60.3993 47.3288 60.3798 47.3414 60.3334 47.3689C60.2871 47.3964 60.2566 47.413 60.1955 47.4463Z" fill="white"/>
<defs>
<linearGradient id="paint0_linear_27_174" x1="50.4997" y1="15.6311" x2="50.4997" y2="84.6336" gradientUnits="userSpaceOnUse">
<stop stop-color="#0369A1"/>
</linearGradient>
<linearGradient id="paint1_linear_27_174" x1="50.4997" y1="15.6311" x2="50.4997" y2="84.6336" gradientUnits="userSpaceOnUse">
<stop stop-color="#0369A1"/>
</linearGradient>
</defs>
</svg>
